<svg xmlns="http://www.w3.org/2000/svg" viewBox="0 0 210 310" shape-rendering="crispEdges">
  <path fill="#68452f" d="M90 150h37v133H90z"/>
  <path fill="#4b3027" d="M103 165h13v118h-13zm-32 118h76v17H71z"/>
  <path fill="#255840" d="M60 42h92v22h29v70h-22v35H47v-18H19V79h24V55h17z"/>
  <path fill="#3f7b4d" d="M71 19h65v18h29v25h20v52h-28V92h-31V67H71v25H43V62h28z"/>
  <path fill="#78a650" d="M78 8h51v17H78zM52 47h35v17H52zm84 10h30v18h-30zM32 91h29v20H32z"/>
  <path fill="#173f36" d="M47 151h112v18H47zm112-37h22v20h-22z"/>
</svg>
